<svg id="Layer_1" enable-background="new 0 0 512 512" height="512" viewBox="0 0 512 512" width="512" xmlns="http://www.w3.org/2000/svg"><g><circle cx="223.867" cy="288.133" fill="#5abeff" r="223.867"/><path d="m65.569 446.431c87.425 87.425 229.17 87.425 316.595 0s87.425-229.17 0-316.595z" fill="#469be6"/><path d="m304.2 415.6h-192.8c-8.284 0-15-6.716-15-15v-192.8c0-114.581 93.219-207.8 207.8-207.8h192.8c8.284 0 15 6.716 15 15v192.8c0 114.581-93.219 207.8-207.8 207.8z" fill="#bee75e"/><path d="m111.4 415.6h192.8c114.581 0 207.8-93.219 207.8-207.8v-192.8c0-4.142-1.679-7.892-4.393-10.607l-406.814 406.814c2.715 2.714 6.465 4.393 10.607 4.393z" fill="#8ee26b"/><path d="m507.606 4.394c-5.857-5.858-15.355-5.858-21.213 0l-118.993 118.993v-28.053c0-8.284-6.716-15-15-15s-15 6.716-15 15v58.053l-50.334 50.334v-60.188c0-8.284-6.716-15-15-15s-15 6.716-15 15v90.188l-50.333 50.333v-92.32c0-8.284-6.716-15-15-15s-15 6.716-15 15v122.32l-111.164 111.164c-5.858 5.858-5.858 15.355 0 21.213 5.858 5.859 15.357 5.857 21.213 0l111.164-111.164h122.32c8.284 0 15-6.716 15-15s-6.716-15-15-15h-92.32l50.334-50.333h90.187c8.284 0 15-6.716 15-15s-6.716-15-15-15h-60.187l50.333-50.333h58.054c8.284 0 15-6.716 15-15s-6.716-15-15-15h-28.054l118.993-118.994c5.859-5.858 5.859-15.355 0-21.213z" fill="#8ee26b"/><path d="m65.569 446.431c5.858 5.859 15.357 5.857 21.213 0l111.164-111.164h122.32c8.284 0 15-6.716 15-15s-6.716-15-15-15h-92.32l50.334-50.333h90.187c8.284 0 15-6.716 15-15s-6.716-15-15-15h-60.187l50.333-50.333h58.054c8.284 0 15-6.716 15-15s-6.716-15-15-15h-28.054l118.993-118.994c5.858-5.858 5.858-15.355 0-21.213z" fill="#00cb75"/></g></svg>